<svg xmlns="http://www.w3.org/2000/svg" viewBox="0 0 1311.92 282.96"><defs><style>.cls-1{fill:#cd7b44;}</style></defs><title>amqp_cacoon_1</title><g id="Layer_2" data-name="Layer 2"><g id="Layer_1-2" data-name="Layer 1"><path class="cls-1" d="M156.6,0H126.36C56.86,0,0,56.86,0,126.36V156.6C0,226.1,56.86,283,126.36,283H156.6a125.16,125.16,0,0,0,46.61-9C-29.36,252.44,87.87,67.34,192.12,49.43c23.5-4,36,113.8-76.32,155.07-22-33.59-10.06-72.13,41.74-111.89C79.11,112,30.18,240.72,229.41,259.72A126.47,126.47,0,0,0,283,156.6V126.36C283,56.86,226.1,0,156.6,0Z"/><path class="cls-1" d="M405.35,188.38l-4.65-23.89H367l-12.94,23.89H329.84L390.25,81.67H408l22.9,106.71ZM394.06,125a79.71,79.71,0,0,1-1.32-10.12h-.33A98.11,98.11,0,0,1,387.59,125L376.81,144.9h21.07Z"/><path class="cls-1" d="M564.5,188.38H539.6l3.49-39c.5-5.8,1.16-12.77,2.32-19.58h-.33c-3.65,6.64-8.3,13.94-12.45,19.92l-26.88,39H495.46l-13.28-39A199.8,199.8,0,0,1,476.71,130h-.34c-1.16,6.8-2.82,13.77-4.31,19.41l-10.12,39H437.87L465.59,82.5h20.24L501.1,127c2.16,6.47,5,15.6,6.64,22.57h.33c3.82-7,9.46-15.6,14.27-22.57L552.88,82.5h20.91Z"/><path class="cls-1" d="M648.8,184.4v.33c3.31.67,6.14,1.83,11.94,5.15a37.57,37.57,0,0,0,16.6,5h1.49a28.46,28.46,0,0,0,9.63-1.5l-14.94,19.42a15.56,15.56,0,0,1-4,.33c-10.46,0-18.75-2.82-27.22-8.79-11.45-8.14-18.42-13.45-27.21-15.27-20.75-4.48-36.18-21.91-36.18-45.81a59.23,59.23,0,0,1,1-10.62c5.65-32,35.19-52.77,64.56-52.77,29.71,0,49.79,20.41,49.79,47.79a58.9,58.9,0,0,1-1,10.46C688.79,163,668.38,180.42,648.8,184.4Zm19.25-55.76c0-14.44-9.3-25.89-25.4-25.89-16.76,0-33.68,14.77-37,33.52a40.18,40.18,0,0,0-.5,6.14c0,14.44,9.29,25.89,25.39,25.89,16.76,0,33.69-14.77,37-33.52A40.18,40.18,0,0,0,668.05,128.64Z"/><path class="cls-1" d="M744.05,146.73h-15.6l-7.31,41.65H696.42L715,82.5h39.66c16.1,0,29.54,10.29,29.54,27.22C784.21,132,765.29,146.73,744.05,146.73Zm4.15-43.48h-12L731.93,127h11.29c8.3,0,16.09-5.81,16.09-14.6C759.31,105.9,754,103.25,748.2,103.25Z"/><path class="cls-1" d="M889.92,108.56a42.17,42.17,0,0,0-20.08-4.81c-21.74,0-41.33,16.26-41.33,38.83,0,16.43,12.12,25.89,27.88,25.89a55.76,55.76,0,0,0,26.72-7L879,184.07c-8.63,5-18.91,5.81-28.71,5.81-26.71,0-47.46-18.92-47.46-46.14,0-35.84,30.37-62.89,65.55-62.89,9.79,0,21.25,1.82,29.88,6.63Z"/><path class="cls-1" d="M962.27,188.38H940l2.16-13.11-.33-.16c-5.81,11.28-17.1,15.1-26.06,15.1-17.92,0-25.39-13.78-25.39-27.88a35.67,35.67,0,0,1,.66-7.3c5-27.39,27.39-44.31,55.6-44.31,11,0,20.74,2.49,28.05,6.47ZM941.19,130.8c-12.94,0-24.56,11.78-26.72,24.39a25.75,25.75,0,0,0-.33,3.49c0,6.64,3.49,11.95,11,11.95,8.79,0,18.42-9.79,21.4-25.89L948.83,132A24,24,0,0,0,941.19,130.8Z"/><path class="cls-1" d="M1043.58,136.94a30.13,30.13,0,0,0-14.6-4c-12.12,0-23.4,9.63-23.4,22.08,0,9.46,6.8,14.93,15.93,14.93,6.64,0,12.61-2.15,18.25-5.64l-3.65,20.91c-6.64,3.49-14.1,4.65-21.57,4.65-19.42,0-34.19-12.78-34.19-32.7,0-26.05,21.91-45.63,47.47-45.63,8.13,0,16.59,1.32,23.56,5.64Z"/><path class="cls-1" d="M1086.56,190.71c-20.08,0-35.18-13-35.18-33.53,0-25.72,21.9-46.46,47.46-46.46,20.08,0,35.18,13.11,35.18,33.69C1134,170.29,1112,190.71,1086.56,190.71Zm10.79-58.92c-12.12,0-22.07,13-22.07,24.4,0,7.8,4.48,13.77,12.61,13.77C1100,170,1110,157,1110,145.57,1110,137.77,1105.48,131.79,1097.35,131.79Z"/><path class="cls-1" d="M1177.5,190.71c-20.08,0-35.18-13-35.18-33.53,0-25.72,21.9-46.46,47.46-46.46,20.08,0,35.18,13.11,35.18,33.69C1225,170.29,1202.89,190.71,1177.5,190.71Zm10.78-58.92c-12.11,0-22.07,13-22.07,24.4,0,7.8,4.48,13.77,12.62,13.77,12.11,0,22.07-12.94,22.07-24.39C1200.9,137.77,1196.42,131.79,1188.28,131.79Z"/><path class="cls-1" d="M1311.42,137.77l-8.8,50.61h-24.39l8.46-48a9.18,9.18,0,0,0,.17-2.15c0-4-2.16-6.64-6.31-6.64-14.77,0-21.08,18.09-23.23,30l-4.65,26.72h-24.56l13.28-75.17h22.73l-2.49,13.94.33.16a31.89,31.89,0,0,1,28.38-16.26c13.11,0,21.58,7.47,21.58,20.74A36.56,36.56,0,0,1,1311.42,137.77Z"/></g></g></svg>